<?xml version="1.0" encoding="UTF-8"?>
<svg fill="#df3e3e" width="700pt" height="700pt" version="1.1" viewBox="0 0 700 700" xmlns="http://www.w3.org/2000/svg">
 <g>
  <path d="m514.71 280c0 90.59-74.117 164.71-164.71 164.71s-164.71-74.117-164.71-164.71 74.117-164.71 164.71-164.71c90.59-1.6445 164.71 72.473 164.71 164.71v0zm-304.71 0c0 77.41 62.59 140 140 141.65 77.41 0 140-62.59 141.65-140 0-77.41-62.59-140-140-141.65h-1.6484c-77.41 0-140 62.59-140 140z"/>
  <path d="m397.77 250.35-47.766 47.766-47.766-47.766c-4.9414-4.9414-13.176-4.9414-18.117 0-4.9414 4.9414-4.9414 13.176 0 18.117l65.883 65.883 65.883-65.883c4.9414-4.9414 4.9414-13.176 0-18.117-3.293-4.9414-11.531-4.9414-18.117 0 1.6445-1.6445 0 0 0 0z"/>
 </g>
</svg>
