<?xml version="1.0" encoding="UTF-8"?>
<svg fill="#50e050" width="700pt" height="700pt" version="1.1" viewBox="0 0 700 700" xmlns="http://www.w3.org/2000/svg">
 <g>
  <path d="m185.29 280c0-90.59 74.117-164.71 164.71-164.71s164.71 74.117 164.71 164.71-74.117 164.71-164.71 164.71-164.71-74.117-164.71-164.71zm304.71 0c0-77.41-62.59-140-141.65-140-79.059 0-138.35 62.59-138.35 140s62.59 140 140 140 140-62.59 140-140z"/>
  <path d="m302.23 309.65 47.766-47.766 47.766 47.766c4.9414 4.9414 13.176 4.9414 18.117 0 4.9414-4.9414 4.9414-13.176 0-18.117l-65.883-65.883-65.883 65.883c-4.9414 4.9414-4.9414 13.176 0 18.117 3.293 4.9414 11.531 6.5859 18.117 0-1.6445 1.6445 0 1.6445 0 0z"/>
 </g>
</svg>
